<svg width="64" height="64" viewBox="0 0 64 64" fill="none" xmlns="http://www.w3.org/2000/svg">
<rect width="64" height="64" rx="16" fill="#0D95B2"/>
<path d="M23.1168 23.3794C25.1158 23.3794 26.7363 21.7432 26.7363 19.7249C26.7363 17.7065 25.1158 16.0703 23.1168 16.0703C21.1178 16.0703 19.4973 17.7065 19.4973 19.7249C19.4973 21.7432 21.1178 23.3794 23.1168 23.3794Z" stroke="white" stroke-width="2" stroke-linecap="round" stroke-linejoin="round"/>
<path d="M26.7362 42.4987V27.7654L36.2549 26.4844C37.022 26.3803 37.5947 25.7206 37.5947 24.9386C37.5947 24.0779 36.9032 23.3799 36.0514 23.3799H23.1167C19.9185 23.3799 16.6016 24.8417 16.6016 29.2272V32.5382C16.6016 34.1627 17.2408 35.7195 18.3789 36.8689L19.4972 37.9981V50.4236" stroke="white" stroke-width="2" stroke-linecap="round" stroke-linejoin="round"/>
<path d="M23.1167 38.7285V47.2656" stroke="white" stroke-width="2" stroke-linecap="round" stroke-linejoin="round"/>
<path d="M13 51.154H21.4635L25.4252 41.8348L29.0267 43.6621L34.4289 35.6221L41.3114 51.154" stroke="white" stroke-width="2" stroke-linecap="round" stroke-linejoin="round"/>
<path d="M34.429 35.622V26.7012" stroke="white" stroke-width="2" stroke-linecap="round" stroke-linejoin="round"/>
<path d="M34.429 23.3795V11.8457" stroke="white" stroke-width="2" stroke-linecap="round" stroke-linejoin="round"/>
<path d="M34.429 12.9219L50 16.8944L34.429 19.7248" stroke="white" stroke-width="2" stroke-linecap="round" stroke-linejoin="round"/>
</svg>
